<svg xmlns="http://www.w3.org/2000/svg" viewBox="0 0 760 360" width="100%" font-family="Segoe UI, Helvetica, Arial, sans-serif"><rect x="0" y="0" width="760" height="360" fill="#fcfcfb"/><line x1="66" y1="22" x2="82" y2="22" stroke="#2a78d6" stroke-width="2.5" stroke-linecap="round"/><circle cx="74" cy="22" r="3.6" fill="#2a78d6" stroke="#fcfcfb" stroke-width="1.2"/><text x="88" y="25.5" font-size="11.5" fill="#0b0b0b">close/cores</text><line x1="160.4" y1="22" x2="176.4" y2="22" stroke="#eb6834" stroke-width="2.5" stroke-linecap="round"/><circle cx="168.4" cy="22" r="3.6" fill="#eb6834" stroke="#fcfcfb" stroke-width="1.2"/><text x="182.4" y="25.5" font-size="11.5" fill="#0b0b0b">spread/cores</text><line x1="261.20000000000005" y1="22" x2="277.20000000000005" y2="22" stroke="#1baf7a" stroke-width="2.5" stroke-linecap="round"/><circle cx="269.20000000000005" cy="22" r="3.6" fill="#1baf7a" stroke="#fcfcfb" stroke-width="1.2"/><text x="283.20000000000005" y="25.5" font-size="11.5" fill="#0b0b0b">close/threads</text><line x1="368.40000000000003" y1="22" x2="384.40000000000003" y2="22" stroke="#eda100" stroke-width="2.5" stroke-linecap="round"/><circle cx="376.40000000000003" cy="22" r="3.6" fill="#eda100" stroke="#fcfcfb" stroke-width="1.2"/><text x="390.40000000000003" y="25.5" font-size="11.5" fill="#0b0b0b">spread/threads</text><line x1="482.00000000000006" y1="22" x2="498.00000000000006" y2="22" stroke="#e87ba4" stroke-width="2.5" stroke-linecap="round"/><circle cx="490.00000000000006" cy="22" r="3.6" fill="#e87ba4" stroke="#fcfcfb" stroke-width="1.2"/><text x="504.00000000000006" y="25.5" font-size="11.5" fill="#0b0b0b">sem afinidade</text><line x1="66" y1="312.0" x2="734" y2="312.0" stroke="#e3e3de" stroke-width="1"/><text x="56" y="316.0" font-size="11.5" fill="#52514e" text-anchor="end">0.0</text><line x1="66" y1="272.0" x2="734" y2="272.0" stroke="#e3e3de" stroke-width="1"/><text x="56" y="276.0" font-size="11.5" fill="#52514e" text-anchor="end">0.2</text><line x1="66" y1="232.0" x2="734" y2="232.0" stroke="#e3e3de" stroke-width="1"/><text x="56" y="236.0" font-size="11.5" fill="#52514e" text-anchor="end">0.4</text><line x1="66" y1="192.0" x2="734" y2="192.0" stroke="#e3e3de" stroke-width="1"/><text x="56" y="196.0" font-size="11.5" fill="#52514e" text-anchor="end">0.6</text><line x1="66" y1="152.0" x2="734" y2="152.0" stroke="#e3e3de" stroke-width="1"/><text x="56" y="156.0" font-size="11.5" fill="#52514e" text-anchor="end">0.8</text><line x1="66" y1="112.0" x2="734" y2="112.0" stroke="#e3e3de" stroke-width="1"/><text x="56" y="116.0" font-size="11.5" fill="#52514e" text-anchor="end">1.0</text><line x1="66" y1="72.0" x2="734" y2="72.0" stroke="#e3e3de" stroke-width="1"/><text x="56" y="76.0" font-size="11.5" fill="#52514e" text-anchor="end">1.2</text><text x="66.0" y="332" font-size="11.5" fill="#52514e" text-anchor="middle">1</text><text x="256.9" y="332" font-size="11.5" fill="#52514e" text-anchor="middle">4</text><text x="352.3" y="332" font-size="11.5" fill="#52514e" text-anchor="middle">8</text><text x="447.7" y="332" font-size="11.5" fill="#52514e" text-anchor="middle">16</text><text x="543.1" y="332" font-size="11.5" fill="#52514e" text-anchor="middle">32</text><text x="638.6" y="332" font-size="11.5" fill="#52514e" text-anchor="middle">64</text><text x="734.0" y="332" font-size="11.5" fill="#52514e" text-anchor="middle">128</text><line x1="66" y1="312" x2="734" y2="312" stroke="#a8a8a2" stroke-width="1.2"/><text x="400" y="352" font-size="12" fill="#52514e" text-anchor="middle">threads</text><text transform="translate(16,182) rotate(-90)" font-size="12" fill="#52514e" text-anchor="middle">eficiencia</text><path d="M66.0,119.8 L256.9,154.8 L352.3,227.7 L447.7,244.3 L543.1,179.6 L638.6,205.4 L734.0,221.0" fill="none" stroke="#2a78d6" stroke-width="2" stroke-linejoin="round" stroke-linecap="round"/><circle cx="66.0" cy="119.8" r="4" fill="#2a78d6" stroke="#fcfcfb" stroke-width="1.5"/><circle cx="256.9" cy="154.8" r="4" fill="#2a78d6" stroke="#fcfcfb" stroke-width="1.5"/><circle cx="352.3" cy="227.7" r="4" fill="#2a78d6" stroke="#fcfcfb" stroke-width="1.5"/><circle cx="447.7" cy="244.3" r="4" fill="#2a78d6" stroke="#fcfcfb" stroke-width="1.5"/><circle cx="543.1" cy="179.6" r="4" fill="#2a78d6" stroke="#fcfcfb" stroke-width="1.5"/><circle cx="638.6" cy="205.4" r="4" fill="#2a78d6" stroke="#fcfcfb" stroke-width="1.5"/><circle cx="734.0" cy="221.0" r="4" fill="#2a78d6" stroke="#fcfcfb" stroke-width="1.5"/><path d="M66.0,131.9 L256.9,136.4 L352.3,142.5 L447.7,152.3 L543.1,175.6 L638.6,201.0 L734.0,218.5" fill="none" stroke="#eb6834" stroke-width="2" stroke-linejoin="round" stroke-linecap="round"/><circle cx="66.0" cy="131.9" r="4" fill="#eb6834" stroke="#fcfcfb" stroke-width="1.5"/><circle cx="256.9" cy="136.4" r="4" fill="#eb6834" stroke="#fcfcfb" stroke-width="1.5"/><circle cx="352.3" cy="142.5" r="4" fill="#eb6834" stroke="#fcfcfb" stroke-width="1.5"/><circle cx="447.7" cy="152.3" r="4" fill="#eb6834" stroke="#fcfcfb" stroke-width="1.5"/><circle cx="543.1" cy="175.6" r="4" fill="#eb6834" stroke="#fcfcfb" stroke-width="1.5"/><circle cx="638.6" cy="201.0" r="4" fill="#eb6834" stroke="#fcfcfb" stroke-width="1.5"/><circle cx="734.0" cy="218.5" r="4" fill="#eb6834" stroke="#fcfcfb" stroke-width="1.5"/><path d="M66.0,83.5 L256.9,199.7 L352.3,227.6 L447.7,267.6 L543.1,280.3 L638.6,238.8 L734.0,254.6" fill="none" stroke="#1baf7a" stroke-width="2" stroke-linejoin="round" stroke-linecap="round"/><circle cx="66.0" cy="83.5" r="4" fill="#1baf7a" stroke="#fcfcfb" stroke-width="1.5"/><circle cx="256.9" cy="199.7" r="4" fill="#1baf7a" stroke="#fcfcfb" stroke-width="1.5"/><circle cx="352.3" cy="227.6" r="4" fill="#1baf7a" stroke="#fcfcfb" stroke-width="1.5"/><circle cx="447.7" cy="267.6" r="4" fill="#1baf7a" stroke="#fcfcfb" stroke-width="1.5"/><circle cx="543.1" cy="280.3" r="4" fill="#1baf7a" stroke="#fcfcfb" stroke-width="1.5"/><circle cx="638.6" cy="238.8" r="4" fill="#1baf7a" stroke="#fcfcfb" stroke-width="1.5"/><circle cx="734.0" cy="254.6" r="4" fill="#1baf7a" stroke="#fcfcfb" stroke-width="1.5"/><path d="M66.0,99.3 L256.9,124.7 L352.3,148.4 L447.7,182.5 L543.1,182.8 L638.6,190.1 L734.0,212.7" fill="none" stroke="#eda100" stroke-width="2" stroke-linejoin="round" stroke-linecap="round"/><circle cx="66.0" cy="99.3" r="4" fill="#eda100" stroke="#fcfcfb" stroke-width="1.5"/><circle cx="256.9" cy="124.7" r="4" fill="#eda100" stroke="#fcfcfb" stroke-width="1.5"/><circle cx="352.3" cy="148.4" r="4" fill="#eda100" stroke="#fcfcfb" stroke-width="1.5"/><circle cx="447.7" cy="182.5" r="4" fill="#eda100" stroke="#fcfcfb" stroke-width="1.5"/><circle cx="543.1" cy="182.8" r="4" fill="#eda100" stroke="#fcfcfb" stroke-width="1.5"/><circle cx="638.6" cy="190.1" r="4" fill="#eda100" stroke="#fcfcfb" stroke-width="1.5"/><circle cx="734.0" cy="212.7" r="4" fill="#eda100" stroke="#fcfcfb" stroke-width="1.5"/><path d="M66.0,117.6 L256.9,135.6 L352.3,147.9 L447.7,187.2 L543.1,152.1 L638.6,251.9 L734.0,259.9" fill="none" stroke="#e87ba4" stroke-width="2" stroke-linejoin="round" stroke-linecap="round"/><circle cx="66.0" cy="117.6" r="4" fill="#e87ba4" stroke="#fcfcfb" stroke-width="1.5"/><circle cx="256.9" cy="135.6" r="4" fill="#e87ba4" stroke="#fcfcfb" stroke-width="1.5"/><circle cx="352.3" cy="147.9" r="4" fill="#e87ba4" stroke="#fcfcfb" stroke-width="1.5"/><circle cx="447.7" cy="187.2" r="4" fill="#e87ba4" stroke="#fcfcfb" stroke-width="1.5"/><circle cx="543.1" cy="152.1" r="4" fill="#e87ba4" stroke="#fcfcfb" stroke-width="1.5"/><circle cx="638.6" cy="251.9" r="4" fill="#e87ba4" stroke="#fcfcfb" stroke-width="1.5"/><circle cx="734.0" cy="259.9" r="4" fill="#e87ba4" stroke="#fcfcfb" stroke-width="1.5"/></svg>